<?xml version="1.0" encoding="UTF-8"?>
<svg version="1.1" xmlns="http://www.w3.org/2000/svg" width="239" height="178">
<path d="M0 0 C78.87 0 157.74 0 239 0 C239 108.71619671 239 108.71619671 203.6875 144.75 C197.29656505 151.084059 190.7273078 156.33601779 183 161 C181.8759375 161.68449219 180.751875 162.36898437 179.59375 163.07421875 C172.47215627 167.22056017 165.11236175 170.23468277 157.3125 172.875 C156.47009766 173.16133301 155.62769531 173.44766602 154.75976562 173.74267578 C143.16415906 177.47689223 131.88989527 178.36530155 119.75 178.3125 C119.06546753 178.31001251 118.38093506 178.30752502 117.67565918 178.30496216 C83.77572846 178.11445195 55.00243194 164.66256866 31.31787109 140.7355957 C25.74676721 134.9327862 21.14745061 128.92031759 17 122 C16.43224854 121.05350586 16.43224854 121.05350586 15.85302734 120.08789062 C-6.32982354 82.46753041 0 45.35480105 0 0 Z " fill="#048ED0" transform="translate(0,0)"/>
<path d="M0 0 C4.83373824 0.02898794 8.30512906 0.36169301 12.79296875 2.265625 C13.78296875 1.605625 14.77296875 0.945625 15.79296875 0.265625 C19.98047782 -0.54881308 24.0280556 -0.78153369 27.78125 1.4453125 C31.19511829 4.85103313 32.20476838 7.91944165 32.41796875 12.703125 C31.98575155 20.20518067 28.81758781 25.7699479 23.79296875 31.265625 C20.37917565 34.265625 20.37917565 34.265625 16.79296875 34.265625 C16.46296875 33.275625 16.13296875 32.285625 15.79296875 31.265625 C16.33566406 30.84152344 16.87835938 30.41742188 17.4375 29.98046875 C22.74249071 25.63133222 26.15019824 22.05792664 27.1015625 14.96484375 C27.30771283 11.14793924 27.20779219 8.93572441 25.16796875 5.640625 C22.77884947 3.95834874 22.77884947 3.95834874 19.54296875 4.515625 C18.63546875 4.763125 17.72796875 5.010625 16.79296875 5.265625 C16.79296875 6.585625 16.79296875 7.905625 16.79296875 9.265625 C17.12296875 9.595625 17.45296875 9.925625 17.79296875 10.265625 C18.25282276 16.4736542 18.25282276 16.4736542 16.66796875 19.203125 C13.90316442 20.76984745 11.91108358 20.65538935 8.79296875 20.265625 C6.91796875 19.203125 6.91796875 19.203125 5.79296875 17.265625 C5.40671305 13.01681227 5.46317235 9.90593188 7.79296875 6.265625 C4.96728329 3.94524405 4.96728329 3.94524405 1.73046875 4.453125 C-1.50444078 5.00316998 -1.50444078 5.00316998 -3.20703125 8.265625 C-3.79538559 15.32587713 -2.42066738 20.12368985 1.73046875 26.015625 C3.62680713 28.08435778 5.47648665 29.69372643 7.79296875 31.265625 C7.29796875 32.750625 7.29796875 32.750625 6.79296875 34.265625 C2.66059111 32.9170131 0.4456547 31.22181095 -2.39453125 27.953125 C-3.06871094 27.19386719 -3.74289063 26.43460938 -4.4375 25.65234375 C-8.45152172 20.23828796 -9.09036583 14.83805491 -8.20703125 8.265625 C-4.03946368 0.48616554 -4.03946368 0.48616554 0 0 Z " fill="#F3F8FC" transform="translate(49.20703125,96.734375)"/>
<path d="M0 0 C2.3925 -0.0825 4.785 -0.165 7.25 -0.25 C7.99668945 -0.28641602 8.74337891 -0.32283203 9.51269531 -0.36035156 C12.95078838 -0.41768394 14.71417264 -0.21213749 17.5 1.85546875 C19 4 19 4 18.75 6.5625 C18.5025 7.366875 18.255 8.17125 18 9 C18 9.99 18 10.98 18 12 C18.33 12.33 18.66 12.66 19 13 C19.46580407 18.35674677 19.46580407 18.35674677 17.6875 20.8125 C12.64838322 24.35854514 5.8343296 23.05776564 0 23 C0 15.41 0 7.82 0 0 Z " fill="#EFF5FB" transform="translate(87,109)"/>
<path d="M0 0 C2.475 0.495 2.475 0.495 5 1 C6.155 0.773125 7.31 0.54625 8.5 0.3125 C12 0 12 0 14.875 1.5 C17.60878514 4.71621781 17.92526438 6.81480553 18 11 C16.89791992 14.39808026 16.07902124 14.94731917 13 17 C9.375 17.1875 9.375 17.1875 6 17 C5.67 16.67 5.34 16.34 5 16 C4.67 17.98 4.34 19.96 4 22 C2.68 22 1.36 22 0 22 C0 14.74 0 7.48 0 0 Z " fill="#F0F6FB" transform="translate(135,115)"/>
<path d="M0 0 C3.80470451 0.7133821 5.41196019 1.67868421 8 4.5625 C8.92995212 8.03432124 9.34268246 10.40984082 8.3125 13.875 C5.96517443 16.89299002 3.78565918 17.44548693 0.0625 18 C-3 17.5625 -3 17.5625 -5.875 15.5 C-8 12.5625 -8 12.5625 -8.625 9.0625 C-7.67703424 3.75389177 -5.38444917 1.00958422 0 0 Z " fill="#EFF5FB" transform="translate(124,114.4375)"/>
<path d="M0 0 C2.4375 1.625 2.4375 1.625 4 4 C4 5.98 4 7.96 4 10 C0.04 10 -3.92 10 -8 10 C-8 10.66 -8 11.32 -8 12 C-4.7 12 -1.4 12 2 12 C2 13.32 2 14.64 2 16 C-1.10048928 17.55024464 -3.57894218 17.28992015 -7 17 C-9.9375 15.5625 -9.9375 15.5625 -12 13 C-12.71014629 9.85341686 -12.71014629 7.14658314 -12 4 C-8.56691207 -0.26535167 -5.30823445 -0.77210683 0 0 Z " fill="#F1F6FB" transform="translate(167,115)"/>
<path d="M0 0 C3.85864302 0.18078562 6.04912756 0.75641305 8.8125 3.5 C11.65666503 7.49152707 11.92535581 11.16614555 11.6484375 15.97265625 C10.454984 23.0018951 6.43516534 28.83349106 1.125 33.5 C-0.8125 34.6875 -0.8125 34.6875 -3.8125 34.6875 C-4.3075 33.2025 -4.3075 33.2025 -4.8125 31.6875 C-4.26980469 31.26339844 -3.72710937 30.83929688 -3.16796875 30.40234375 C2.13702196 26.05320722 5.54472949 22.47980164 6.49609375 15.38671875 C6.70224408 11.56981424 6.60232344 9.35759941 4.5625 6.0625 C2.20240906 4.41289654 2.20240906 4.41289654 -0.875 4.8125 C-3.96337217 5.57568611 -3.96337217 5.57568611 -6.8125 7.6875 C-7.1425 6.6975 -7.4725 5.7075 -7.8125 4.6875 C-5.82896732 0.94537133 -4.17691571 0.08340999 0 0 Z " fill="#F0F5FB" transform="translate(69.8125,96.3125)"/>
<path d="M0 0 C2.875 1.5625 2.875 1.5625 5 4 C5.63734462 7.96569988 5.61999672 10.03280512 3.4375 13.4375 C0.05782196 15.60396028 -2.05983987 15.56288002 -6 15 C-8.4375 13.4375 -8.4375 13.4375 -10 11 C-10.56783945 7.02512383 -10.62340519 4.93510779 -8.375 1.5625 C-5.26456309 -0.48384007 -3.66322334 -0.59807728 0 0 Z " fill="#EDF4FA" transform="translate(72,78)"/>
<path d="M0 0 C2.9375 2.0625 2.9375 2.0625 5 5 C5 8.54361243 4.65850044 10.86591591 2.875 13.9375 C-0.18452459 15.6712306 -2.56817525 15.42145216 -6 15 C-8.4375 13.4375 -8.4375 13.4375 -10 11 C-10.56783945 7.02512383 -10.62340519 4.93510779 -8.375 1.5625 C-5.24316508 -0.49791771 -3.68455227 -0.6767545 0 0 Z " fill="#EFF5FB" transform="translate(55,78)"/>
<path d="M0 0 C1.65 0 3.3 0 5 0 C5 1.32 5 2.64 5 4 C6.32 4 7.64 4 9 4 C9 5.32 9 6.64 9 8 C7.35 8 5.7 8 4 8 C4.33 10.64 4.66 13.28 5 16 C6.32 16.33 7.64 16.66 9 17 C8.67 18.32 8.34 19.64 8 21 C5.125 20.6875 5.125 20.6875 2 20 C-0.13586678 16.79619983 -0.23132175 15.98060033 -0.125 12.3125 C-0.10695312 11.50425781 -0.08890625 10.69601563 -0.0703125 9.86328125 C-0.03550781 8.94095703 -0.03550781 8.94095703 0 8 C-0.99 8 -1.98 8 -3 8 C-3 6.68 -3 5.36 -3 4 C-2.01 4 -1.02 4 0 4 C0 2.68 0 1.36 0 0 Z " fill="#E6F0F9" transform="translate(175,111)"/>
<path d="M0 0 C2.9375 0.8125 2.9375 0.8125 4.9375 3.8125 C4.72732001 6.61489987 4.24793413 8.34684881 2.6875 10.6875 C0.9375 11.8125 0.9375 11.8125 -1.5625 11.6875 C-4.28524244 10.73454015 -5.53739421 10.26961489 -7.0625 7.8125 C-6.9375 4.75 -6.9375 4.75 -6.0625 1.8125 C-3.0625 -0.1875 -3.0625 -0.1875 0 0 Z " fill="#CAE4F4" transform="translate(84.0625,88.1875)"/>
<path d="M0 0 C1.875 1.0625 1.875 1.0625 3 3 C2.55555556 9.44444444 2.55555556 9.44444444 1 11 C-2.4375 11.1875 -2.4375 11.1875 -6 11 C-8 9 -8 9 -8.3125 6.0625 C-8 3 -8 3 -6.8125 1.125 C-4.34492892 -0.40659584 -2.85480169 -0.42822025 0 0 Z " fill="#D2E8F6" transform="translate(42,88)"/>
<path d="M0 0 C1.32 0 2.64 0 4 0 C4 5.61 4 11.22 4 17 C2.68 17 1.36 17 0 17 C0 11.39 0 5.78 0 0 Z " fill="#F0F5FB" transform="translate(109,115)"/>
<path d="M0 0 C1.2375 0.1546875 1.2375 0.1546875 2.5 0.3125 C4.5 3.3125 4.5 3.3125 4.1875 5.9375 C3.5 8.3125 3.5 8.3125 2.5 9.3125 C0.0625 9.5 0.0625 9.5 -2.5 9.3125 C-4.5 7.3125 -4.5 7.3125 -4.75 4.8125 C-4.40047575 1.3172575 -3.47557682 0.4344471 0 0 Z " fill="#0990D1" transform="translate(124.5,118.6875)"/>
<path d="M0 0 C3.125 0.375 3.125 0.375 6 1 C6.6875 3.3125 6.6875 3.3125 7 6 C5.875 7.875 5.875 7.875 4 9 C-0.42105263 8.57894737 -0.42105263 8.57894737 -2 7 C-2.1875 4.5625 -2.1875 4.5625 -2 2 C-1.34 1.34 -0.68 0.68 0 0 Z " fill="#088FD1" transform="translate(142,119)"/>
<path d="M0 0 C1.65 0 3.3 0 5 0 C5.05399736 1.45792884 5.09279177 2.91642712 5.125 4.375 C5.14820312 5.18710938 5.17140625 5.99921875 5.1953125 6.8359375 C5 9 5 9 3 11 C-0.125 11.125 -0.125 11.125 -3 11 C-3.33 7.7 -3.66 4.4 -4 1 C-3.34 1 -2.68 1 -2 1 C-2 3.64 -2 6.28 -2 9 C-1.34 9 -0.68 9 0 9 C0 6.03 0 3.06 0 0 Z " fill="#D8E7F6" transform="translate(115,141)"/>
<path d="M0 0 C3.3 0 6.6 0 10 0 C10.33 1.32 10.66 2.64 11 4 C10 5 10 5 7.71484375 5.09765625 C6.34005859 5.08025391 6.34005859 5.08025391 4.9375 5.0625 C4.01839844 5.05347656 3.09929687 5.04445313 2.15234375 5.03515625 C1.44207031 5.02355469 0.73179688 5.01195313 0 5 C0 3.35 0 1.7 0 0 Z " fill="#048ED0" transform="translate(91,122)"/>
<path d="M0 0 C2.4375 0.1875 2.4375 0.1875 3.4375 1.1875 C3.625 3.625 3.625 3.625 3.4375 6.1875 C2.7775 6.8475 2.1175 7.5075 1.4375 8.1875 C-1.1875 7.8125 -1.1875 7.8125 -3.5625 7.1875 C-4.1875 4.8125 -4.1875 4.8125 -4.5625 2.1875 C-2.5625 0.1875 -2.5625 0.1875 0 0 Z " fill="#0E91D2" transform="translate(52.5625,81.8125)"/>
<path d="M0 0 C2.5 0.125 2.5 0.125 3.5 1.125 C3.6875 3.5625 3.6875 3.5625 3.5 6.125 C2.84 6.785 2.18 7.445 1.5 8.125 C-1.43453261 7.75818342 -2.36437246 7.26062754 -4.5 5.125 C-3.7519084 0.18759542 -3.7519084 0.18759542 0 0 Z " fill="#0D91D2" transform="translate(69.5,81.875)"/>
<path d="M0 0 C2.97 0 5.94 0 9 0 C9.33 1.32 9.66 2.64 10 4 C9 5 9 5 6.93359375 5.09765625 C6.10988281 5.08605469 5.28617187 5.07445313 4.4375 5.0625 C3.61121094 5.05347656 2.78492187 5.04445313 1.93359375 5.03515625 C1.29550781 5.02355469 0.65742187 5.01195313 0 5 C0 3.35 0 1.7 0 0 Z " fill="#028ED0" transform="translate(91,113)"/>
<path d="M0 0 C1.65 0 3.3 0 5 0 C6 1 6 1 6.09765625 3.06640625 C6.08605469 3.89011719 6.07445312 4.71382812 6.0625 5.5625 C6.05347656 6.38878906 6.04445312 7.21507812 6.03515625 8.06640625 C6.01775391 9.02353516 6.01775391 9.02353516 6 10 C5.01 10 4.02 10 3 10 C3.33 7.03 3.66 4.06 4 1 C3.34 1 2.68 1 2 1 C2 3.97 2 6.94 2 10 C1.34 10 0.68 10 0 10 C0 6.7 0 3.4 0 0 Z " fill="#D3E5F5" transform="translate(139,142)"/>
<path d="M0 0 C1.99954746 -0.04254356 4.00041636 -0.04080783 6 0 C7 1 7 1 7.09765625 2.84765625 C7.06510417 4.8984375 7.03255208 6.94921875 7 9 C5.68 9.33 4.36 9.66 3 10 C3 9.34 3 8.68 3 8 C3.66 8 4.32 8 5 8 C4.65772428 5.02934491 4.65772428 5.02934491 4 2 C3.34 1.67 2.68 1.34 2 1 C2 3.97 2 6.94 2 10 C1.34 10 0.68 10 0 10 C0 6.7 0 3.4 0 0 Z " fill="#D3E4F5" transform="translate(122,142)"/>
<path d="M0 0 C1.98 0 3.96 0 6 0 C6.02689216 1.47906892 6.04634621 2.95827483 6.0625 4.4375 C6.07410156 5.26121094 6.08570312 6.08492187 6.09765625 6.93359375 C6 9 6 9 5 10 C3.33382885 10.04063832 1.66611905 10.042721 0 10 C0 9.34 0 8.68 0 8 C1.65 8 3.3 8 5 8 C5 5.69 5 3.38 5 1 C4.01 1 3.02 1 2 1 C2.33 2.65 2.66 4.3 3 6 C2.01 6 1.02 6 0 6 C0 4.02 0 2.04 0 0 Z " fill="#D9E8F6" transform="translate(103,142)"/>
<path d="M0 0 C0.33 0 0.66 0 1 0 C1 1.98 1 3.96 1 6 C2.32 6 3.64 6 5 6 C4.67 4.35 4.34 2.7 4 1 C4.99 1 5.98 1 7 1 C7 3.31 7 5.62 7 8 C5.02 8 3.04 8 1 8 C0.67 8.66 0.34 9.32 0 10 C0 6.7 0 3.4 0 0 Z " fill="#1696D4" transform="translate(101,142)"/>
<path d="M0 0 C0.66 0 1.32 0 2 0 C2 0.99 2 1.98 2 3 C3.32 3 4.64 3 6 3 C5.34 6.3 4.68 9.6 4 13 C3.34 13 2.68 13 2 13 C2.66 10.03 3.32 7.06 4 4 C2.68 4 1.36 4 0 4 C0 2.68 0 1.36 0 0 Z " fill="#D6E6F5" transform="translate(158,139)"/>
<path d="M0 0 C1.32 0.66 2.64 1.32 4 2 C3.67 3.32 3.34 4.64 3 6 C1.68 6 0.36 6 -1 6 C-1.625 4.125 -1.625 4.125 -2 2 C-1.34 1.34 -0.68 0.68 0 0 Z " fill="#2499D6" transform="translate(60,107)"/>
<path d="M0 0 C1.98 0 3.96 0 6 0 C6.33 0.99 6.66 1.98 7 3 C4.36 3 1.72 3 -1 3 C-0.67 2.01 -0.34 1.02 0 0 Z " fill="#339CD7" transform="translate(160,119)"/>
<path d="M0 0 C0.99 0.33 1.98 0.66 3 1 C3 2.98 3 4.96 3 7 C2.01 6.67 1.02 6.34 0 6 C0 4.02 0 2.04 0 0 Z " fill="#2E9CD7" transform="translate(124,143)"/>
</svg>
